<svg xmlns="http://www.w3.org/2000/svg" viewBox="0 0 220 220" width="220" height="220">
  <defs>
    <linearGradient id="skin" x1="0" x2="1" y1="0" y2="1">
      <stop offset="0%" stop-color="#f6d3b2"/>
      <stop offset="100%" stop-color="#efc3a2"/>
    </linearGradient>
    <linearGradient id="hair" x1="0" x2="1" y1="0" y2="1">
      <stop offset="0%" stop-color="#4b3a8d"/>
      <stop offset="100%" stop-color="#382c68"/>
    </linearGradient>
  </defs>
  <rect width="220" height="220" rx="30" fill="#eef2ff"/>
  <circle cx="110" cy="90" r="55" fill="url(#skin)"/>
  <path d="M58 72c8-24 32-36 52-28s28 30 20 54c-8 24-32 38-52 30s-28-30-20-56Z" fill="url(#hair)"/>
  <ellipse cx="92" cy="94" rx="8" ry="12" fill="#1f2937"/>
  <ellipse cx="128" cy="94" rx="8" ry="12" fill="#1f2937"/>
  <path d="M90 118c4 6 14 6 18 0" stroke="#1f2937" stroke-width="4" stroke-linecap="round" fill="none"/>
  <path d="M55 160c0-30 36-45 56-45s56 18 56 45v8H55v-8Z" fill="#ffffff"/>
  <rect x="70" y="138" width="84" height="36" rx="18" fill="#e0e7ff"/>
  <path d="M96 152h28" stroke="#4b3a8d" stroke-width="6" stroke-linecap="round"/>
  <path d="M110 138v14" stroke="#4b3a8d" stroke-width="6" stroke-linecap="round"/>
</svg>
